<svg width="142" height="12" viewBox="0 0 142 12" fill="none" xmlns="http://www.w3.org/2000/svg">
<path d="M5.50445 11.328V1.952H8.88045V0.128002H0.000445321V1.952H3.39245V11.328H5.50445ZM14.2764 11.456C17.5244 11.456 19.9244 9.024 19.9244 5.728C19.9244 2.432 17.5244 2.86102e-06 14.2764 2.86102e-06C11.0124 2.86102e-06 8.61245 2.432 8.61245 5.728C8.61245 9.024 11.0124 11.456 14.2764 11.456ZM14.2604 9.616C12.2284 9.616 10.7404 7.968 10.7404 5.728C10.7404 3.488 12.2284 1.824 14.2604 1.824C16.3084 1.824 17.7964 3.488 17.7964 5.728C17.7964 7.968 16.3084 9.616 14.2604 9.616ZM28.1172 11.456C30.5812 11.456 32.2932 10.192 32.2932 8.112C32.2932 3.744 26.1972 5.6 26.1972 3.12C26.1972 2.336 26.8852 1.824 27.9892 1.824C29.1732 1.824 29.9412 2.48 30.0372 3.456H32.0532C31.9572 1.36 30.3572 2.86102e-06 27.9892 2.86102e-06C25.7172 2.86102e-06 24.1332 1.28 24.1332 3.12C24.1332 7.408 30.1492 5.744 30.1492 8.144C30.1492 9.136 29.3172 9.616 28.1172 9.616C26.7732 9.616 25.9412 8.816 25.8292 7.568H23.7972C23.9092 9.92 25.5732 11.456 28.1172 11.456ZM37.7869 11.328V1.952H41.1629V0.128002H32.2829V1.952H35.6749V11.328H37.7869ZM50.2104 11.328L45.8904 0.128002H43.9064L39.6024 11.328H41.7784L42.7384 8.72H47.0584L48.0184 11.328H50.2104ZM44.9144 2.832L46.4184 6.928H43.4104L44.9144 2.832ZM59.1056 8.336C59.0256 7.312 58.5296 6.48 57.7616 6C58.6896 5.52 59.2656 4.736 59.2656 3.584C59.2656 1.552 57.8896 0.128002 55.5536 0.128002H50.9616V11.328H53.0896V7.12H55.5056C56.3376 7.12 56.9296 7.728 57.0096 8.576L57.2816 11.328H59.3776L59.1056 8.336ZM55.4576 1.904C56.7056 1.904 57.2176 2.688 57.2176 3.584C57.2176 4.48 56.7056 5.296 55.4576 5.296H53.0896V1.904H55.4576ZM64.9832 11.328V1.952H68.3592V0.128002H59.4792V1.952H62.8712V11.328H64.9832ZM82.0711 11.328L77.7511 0.128002H75.7671L71.4631 11.328H73.6391L74.5991 8.72H78.9191L79.8791 11.328H82.0711ZM76.7751 2.832L78.2791 6.928H75.2711L76.7751 2.832ZM84.9342 11.328V3.44L89.7982 11.328H92.0702V0.128002H89.9582V8.032L85.1102 0.128002H82.8222V11.328H84.9342ZM103.525 11.328L99.2048 0.128002H97.2208L92.9168 11.328H95.0928L96.0528 8.72H100.373L101.333 11.328H103.525ZM98.2288 2.832L99.7328 6.928H96.7248L98.2288 2.832ZM111.636 11.328V9.488H106.404V0.128002H104.276V11.328H111.636ZM116.275 11.328V6.672L120.131 0.128002H117.859L115.219 4.704L112.595 0.128002H110.307L114.163 6.672V11.328H116.275ZM124.082 11.456C126.546 11.456 128.258 10.192 128.258 8.112C128.258 3.744 122.162 5.6 122.162 3.12C122.162 2.336 122.85 1.824 123.954 1.824C125.138 1.824 125.906 2.48 126.002 3.456H128.018C127.922 1.36 126.322 2.86102e-06 123.954 2.86102e-06C121.682 2.86102e-06 120.098 1.28 120.098 3.12C120.098 7.408 126.114 5.744 126.114 8.144C126.114 9.136 125.282 9.616 124.082 9.616C122.738 9.616 121.906 8.816 121.794 7.568H119.762C119.874 9.92 121.538 11.456 124.082 11.456ZM131.585 11.328V0.128002H129.457V11.328H131.585ZM137.082 11.456C139.546 11.456 141.258 10.192 141.258 8.112C141.258 3.744 135.162 5.6 135.162 3.12C135.162 2.336 135.85 1.824 136.954 1.824C138.138 1.824 138.906 2.48 139.002 3.456H141.018C140.922 1.36 139.322 2.86102e-06 136.954 2.86102e-06C134.682 2.86102e-06 133.098 1.28 133.098 3.12C133.098 7.408 139.114 5.744 139.114 8.144C139.114 9.136 138.282 9.616 137.082 9.616C135.738 9.616 134.906 8.816 134.794 7.568H132.762C132.874 9.92 134.538 11.456 137.082 11.456Z" fill="#1A1B1C"/>
</svg>
